<?xml version="1.0" encoding="UTF-8"?>
<!DOCTYPE svg PUBLIC "-//W3C//DTD SVG 1.1//EN" "http://www.w3.org/Graphics/SVG/1.1/DTD/svg11.dtd">
<svg xmlns="http://www.w3.org/2000/svg" version="1.1" width="500px" height="500px" style="shape-rendering:geometricPrecision; text-rendering:geometricPrecision; image-rendering:optimizeQuality; fill-rule:evenodd; clip-rule:evenodd" xmlns:xlink="http://www.w3.org/1999/xlink">
<g><path style="opacity:1" fill="#fefefe" d="M -0.5,-0.5 C 166.167,-0.5 332.833,-0.5 499.5,-0.5C 499.5,166.167 499.5,332.833 499.5,499.5C 332.833,499.5 166.167,499.5 -0.5,499.5C -0.5,332.833 -0.5,166.167 -0.5,-0.5 Z"/></g>
<g><path style="opacity:1" fill="#eaa776" d="M 240.5,214.5 C 241.265,217.67 242.265,220.67 243.5,223.5C 243.368,232.188 243.202,240.855 243,249.5C 244.904,246.077 245.737,242.41 245.5,238.5C 246.404,237.791 246.737,236.791 246.5,235.5C 259.919,236.798 271.919,233.465 282.5,225.5C 285.901,222.471 289.901,221.138 294.5,221.5C 307.813,228.754 315.146,240.087 316.5,255.5C 306.234,261.265 298.067,269.265 292,279.5C 285.541,293.431 282.374,308.098 282.5,323.5C 280.265,323.205 278.265,323.539 276.5,324.5C 268.762,324.856 261.095,324.356 253.5,323C 253.271,320.448 253.271,317.948 253.5,315.5C 247.445,325.109 240.778,334.276 233.5,343C 224.309,348.633 214.309,351.799 203.5,352.5C 183.829,354.065 165.162,350.565 147.5,342C 141.5,341.667 135.5,341.333 129.5,341C 127.359,340.427 125.359,339.594 123.5,338.5C 121.003,336.181 118.503,333.847 116,331.5C 115.5,331.833 115,332.167 114.5,332.5C 116.756,333.421 117.756,335.088 117.5,337.5C 112.833,337.5 108.167,337.5 103.5,337.5C 101.263,335.353 99.2632,333.02 97.5,330.5C 97.3398,328.801 97.5065,327.134 98,325.5C 100.892,322.943 104.059,320.776 107.5,319C 115.193,318.904 122.86,319.404 130.5,320.5C 161.6,326.808 188.6,318.975 211.5,297C 214.032,295.235 216.699,293.735 219.5,292.5C 225.576,288.813 232.242,286.979 239.5,287C 232.167,284.432 225.5,285.599 219.5,290.5C 211.173,294.981 203.506,300.481 196.5,307C 184.804,314.899 171.804,319.232 157.5,320C 148.785,320.775 140.119,320.608 131.5,319.5C 125.94,318.369 120.607,316.536 115.5,314C 110.97,311.235 106.303,308.735 101.5,306.5C 86.7554,300.365 73.9221,291.365 63,279.5C 60.5603,276.272 58.3936,272.939 56.5,269.5C 51.0407,255.719 48.7074,241.386 49.5,226.5C 50.8243,219.863 52.1577,213.197 53.5,206.5C 54.2635,202.863 55.5968,199.53 57.5,196.5C 59.6588,193.516 61.3255,190.183 62.5,186.5C 89.9862,149.398 125.653,138.564 169.5,154C 175.5,157.333 181.5,160.667 187.5,164C 198.992,178.164 212.325,190.164 227.5,200C 232.202,204.623 236.535,209.457 240.5,214.5 Z"/></g>
<g><path style="opacity:1" fill="#5b6a70" d="M 363.5,185.5 C 363.083,186.124 362.416,186.457 361.5,186.5C 359.181,185.936 356.847,185.436 354.5,185C 341.653,184.753 328.986,184.587 316.5,184.5C 329.426,182.566 342.426,182.066 355.5,183C 358.202,183.84 360.868,184.673 363.5,185.5 Z"/></g>
<g><path style="opacity:1" fill="#ade0f1" d="M 374.5,193.5 C 380.774,197.441 386.44,202.108 391.5,207.5C 393.666,214.502 391.332,219.335 384.5,222C 375.74,222.375 367.074,221.542 358.5,219.5C 356.015,219.796 354.348,221.129 353.5,223.5C 348.795,224.499 344.129,224.166 339.5,222.5C 335.82,221.062 332.153,219.562 328.5,218C 321.489,217.243 314.489,216.409 307.5,215.5C 305.296,214.794 303.296,213.794 301.5,212.5C 298.08,210.778 294.414,210.111 290.5,210.5C 290.884,207.231 292.218,204.397 294.5,202C 293.906,201.536 293.239,201.369 292.5,201.5C 294.176,199.166 296.509,198.166 299.5,198.5C 299.389,199.117 299.056,199.617 298.5,200C 302.864,201.512 306.53,204.012 309.5,207.5C 310.408,206.21 310.241,204.877 309,203.5C 306.667,201.994 304.5,200.327 302.5,198.5C 304.372,196.09 305.705,193.423 306.5,190.5C 308.768,188.535 311.435,187.368 314.5,187C 327.48,185.707 340.48,185.374 353.5,186C 353.833,186.333 354.167,186.667 354.5,187C 352.833,187.333 351.167,187.667 349.5,188C 352.948,188.953 356.282,189.453 359.5,189.5C 360.328,188.585 361.328,187.919 362.5,187.5C 366.8,188.984 370.8,190.984 374.5,193.5 Z"/></g>
<g><path style="opacity:1" fill="#9ec4d2" d="M 316.5,184.5 C 328.986,184.587 341.653,184.753 354.5,185C 356.847,185.436 359.181,185.936 361.5,186.5C 362.416,186.457 363.083,186.124 363.5,185.5C 367.864,187.344 371.864,189.677 375.5,192.5C 374.833,192.5 374.5,192.833 374.5,193.5C 370.8,190.984 366.8,188.984 362.5,187.5C 361.328,187.919 360.328,188.585 359.5,189.5C 356.282,189.453 352.948,188.953 349.5,188C 351.167,187.667 352.833,187.333 354.5,187C 354.167,186.667 353.833,186.333 353.5,186C 340.48,185.374 327.48,185.707 314.5,187C 311.435,187.368 308.768,188.535 306.5,190.5C 306.5,189.833 306.167,189.5 305.5,189.5C 308.632,186.89 312.299,185.223 316.5,184.5 Z"/></g>
<g><path style="opacity:1" fill="#5e4d44" d="M 240.5,214.5 C 236.535,209.457 232.202,204.623 227.5,200C 212.325,190.164 198.992,178.164 187.5,164C 181.5,160.667 175.5,157.333 169.5,154C 125.653,138.564 89.9862,149.398 62.5,186.5C 76.4051,163.533 96.7385,150.033 123.5,146C 149.915,143.418 173.249,150.585 193.5,167.5C 197.012,158.905 203.346,156.072 212.5,159C 218.438,160.605 221.938,164.438 223,170.5C 224.294,175.708 223.128,180.208 219.5,184C 217.5,184.833 215.5,185.667 213.5,186.5C 221.241,192.805 228.741,199.471 236,206.5C 237.777,209.059 239.277,211.726 240.5,214.5 Z"/></g>
<g><path style="opacity:1" fill="#f2c5a1" d="M 200.5,160.5 C 216.481,158.311 222.981,164.977 220,180.5C 217.398,184.212 213.898,185.378 209.5,184C 205.333,179.833 201.167,175.667 197,171.5C 195.518,166.774 196.685,163.107 200.5,160.5 Z"/></g>
<g><path style="opacity:1" fill="#5c4638" d="M 206.5,168.5 C 208.176,169.183 208.843,170.517 208.5,172.5C 214.167,172.664 214.5,172.997 209.5,173.5C 211.318,180.045 210.484,180.711 207,175.5C 206.503,173.19 206.337,170.857 206.5,168.5 Z"/></g>
<g><path style="opacity:1" fill="#866f5f" d="M 62.5,186.5 C 61.3255,190.183 59.6588,193.516 57.5,196.5C 58.1266,192.58 59.7933,189.247 62.5,186.5 Z"/></g>
<g><path style="opacity:1" fill="#4c3021" d="M 171.5,192.5 C 174.999,192.259 175.332,193.092 172.5,195C 168.553,197.28 164.887,199.947 161.5,203C 160.833,203.667 160.167,203.667 159.5,203C 163.101,198.889 167.101,195.389 171.5,192.5 Z"/></g>
<g><path style="opacity:1" fill="#374b52" d="M 305.5,189.5 C 306.167,189.5 306.5,189.833 306.5,190.5C 305.705,193.423 304.372,196.09 302.5,198.5C 304.5,200.327 306.667,201.994 309,203.5C 310.241,204.877 310.408,206.21 309.5,207.5C 306.53,204.012 302.864,201.512 298.5,200C 299.056,199.617 299.389,199.117 299.5,198.5C 301.735,195.709 303.735,192.709 305.5,189.5 Z"/></g>
<g><path style="opacity:1" fill="#4e5a61" d="M 374.5,193.5 C 374.5,192.833 374.833,192.5 375.5,192.5C 382.263,196.211 388.263,200.878 393.5,206.5C 392.833,206.5 392.5,206.833 392.5,207.5C 392.167,207.5 391.833,207.5 391.5,207.5C 386.44,202.108 380.774,197.441 374.5,193.5 Z"/></g>
<g><path style="opacity:1" fill="#3a271d" d="M 85.5,198.5 C 93.3367,205.824 97.1701,214.824 97,225.5C 96.6667,225.167 96.3333,224.833 96,224.5C 95.4314,219.882 94.0981,215.549 92,211.5C 92.1013,218.961 89.2679,224.961 83.5,229.5C 83.1667,229.333 82.8333,229.167 82.5,229C 87.2865,224.759 89.6198,219.425 89.5,213C 89.2795,207.841 87.9462,203.008 85.5,198.5 Z"/></g>
<g><path style="opacity:1" fill="#3f5155" d="M 292.5,201.5 C 293.239,201.369 293.906,201.536 294.5,202C 292.218,204.397 290.884,207.231 290.5,210.5C 294.414,210.111 298.08,210.778 301.5,212.5C 293.753,212.668 285.92,212.668 278,212.5C 277.07,215.85 277.903,218.683 280.5,221C 285.339,220.78 290.006,220.947 294.5,221.5C 289.901,221.138 285.901,222.471 282.5,225.5C 282.672,224.508 282.338,223.842 281.5,223.5C 276.236,221.07 274.403,217.07 276,211.5C 279.603,209.872 283.437,209.038 287.5,209C 289.389,206.618 291.055,204.118 292.5,201.5 Z"/></g>
<g><path style="opacity:1" fill="#7fd5dc" d="M 391.5,207.5 C 391.833,207.5 392.167,207.5 392.5,207.5C 401.635,218.452 406.302,231.119 406.5,245.5C 406.417,258.357 403.25,270.357 397,281.5C 394.167,284.333 391.333,287.167 388.5,290C 385.854,290.497 383.187,290.664 380.5,290.5C 379.859,289.518 379.193,288.518 378.5,287.5C 388.178,279.501 390.845,269.834 386.5,258.5C 386.672,257.508 386.338,256.842 385.5,256.5C 384.5,253.5 382.5,251.5 379.5,250.5C 375.654,247.487 371.32,245.321 366.5,244C 359.833,243.333 353.167,243.333 346.5,244C 344.618,244.198 342.952,244.698 341.5,245.5C 334.789,246.287 328.789,248.621 323.5,252.5C 321.738,252.357 320.071,252.691 318.5,253.5C 316.955,241.575 311.622,231.742 302.5,224C 300.091,222.293 297.425,221.46 294.5,221.5C 290.006,220.947 285.339,220.78 280.5,221C 277.903,218.683 277.07,215.85 278,212.5C 285.92,212.668 293.753,212.668 301.5,212.5C 303.296,213.794 305.296,214.794 307.5,215.5C 314.489,216.409 321.489,217.243 328.5,218C 332.153,219.562 335.82,221.062 339.5,222.5C 344.129,224.166 348.795,224.499 353.5,223.5C 354.348,221.129 356.015,219.796 358.5,219.5C 367.074,221.542 375.74,222.375 384.5,222C 391.332,219.335 393.666,214.502 391.5,207.5 Z"/></g>
<g><path style="opacity:1" fill="#766358" d="M 53.5,206.5 C 52.1577,213.197 50.8243,219.863 49.5,226.5C 49.1667,226.5 48.8333,226.5 48.5,226.5C 49.1676,219.468 50.8343,212.801 53.5,206.5 Z"/></g>
<g><path style="opacity:1" fill="#573727" d="M 187.5,212.5 C 188.693,212.97 189.36,213.97 189.5,215.5C 188.075,219.997 185.408,223.663 181.5,226.5C 181.167,226.167 180.833,225.833 180.5,225.5C 184.15,221.866 186.483,217.533 187.5,212.5 Z"/></g>
<g><path style="opacity:1" fill="#3c4d52" d="M 393.5,206.5 C 403.311,217.597 407.978,230.597 407.5,245.5C 407.167,245.5 406.833,245.5 406.5,245.5C 406.302,231.119 401.635,218.452 392.5,207.5C 392.5,206.833 392.833,206.5 393.5,206.5 Z"/></g>
<g><path style="opacity:1" fill="#75645a" d="M 240.5,214.5 C 242.136,215.749 243.303,217.416 244,219.5C 245.572,224.407 246.738,229.407 247.5,234.5C 257.945,233.844 267.945,231.344 277.5,227C 279.544,226.502 280.878,225.335 281.5,223.5C 282.338,223.842 282.672,224.508 282.5,225.5C 271.919,233.465 259.919,236.798 246.5,235.5C 246.737,236.791 246.404,237.791 245.5,238.5C 245.904,233.217 245.238,228.217 243.5,223.5C 242.265,220.67 241.265,217.67 240.5,214.5 Z"/></g>
<g><path style="opacity:1" fill="#373d3c" d="M 294.5,221.5 C 297.425,221.46 300.091,222.293 302.5,224C 311.622,231.742 316.955,241.575 318.5,253.5C 320.071,252.691 321.738,252.357 323.5,252.5C 321.664,254.588 319.331,255.921 316.5,256.5C 316.5,256.167 316.5,255.833 316.5,255.5C 315.146,240.087 307.813,228.754 294.5,221.5 Z"/></g>
<g><path style="opacity:1" fill="#312723" d="M 48.5,226.5 C 48.8333,226.5 49.1667,226.5 49.5,226.5C 48.7074,241.386 51.0407,255.719 56.5,269.5C 56.5,270.167 56.1667,270.5 55.5,270.5C 49.2805,256.514 46.9472,241.847 48.5,226.5 Z"/></g>
<g><path style="opacity:1" fill="#4f3527" d="M 243.5,223.5 C 245.238,228.217 245.904,233.217 245.5,238.5C 245.737,242.41 244.904,246.077 243,249.5C 243.202,240.855 243.368,232.188 243.5,223.5 Z"/></g>
<g><path style="opacity:1" fill="#4a4038" d="M 379.5,250.5 C 369.986,246.248 359.986,244.581 349.5,245.5C 346.833,245.5 344.167,245.5 341.5,245.5C 342.952,244.698 344.618,244.198 346.5,244C 353.167,243.333 359.833,243.333 366.5,244C 371.32,245.321 375.654,247.487 379.5,250.5 Z"/></g>
<g><path style="opacity:1" fill="#d37946" d="M 349.5,245.5 C 359.986,244.581 369.986,246.248 379.5,250.5C 381.167,252.833 383.167,254.833 385.5,256.5C 386.338,256.842 386.672,257.508 386.5,258.5C 389.114,270.328 385.781,279.995 376.5,287.5C 370.158,287.334 363.825,287.5 357.5,288C 356.288,289.107 356.621,289.607 358.5,289.5C 347.097,290.37 338.264,295.703 332,305.5C 331.333,303.5 331.333,301.5 332,299.5C 333.824,295.183 335.491,290.85 337,286.5C 340.513,280.809 344.513,275.476 349,270.5C 351.979,262.771 349.812,256.938 342.5,253C 337.934,251.691 333.267,251.191 328.5,251.5C 329.514,250.326 330.847,249.66 332.5,249.5C 338.274,248.12 343.941,246.787 349.5,245.5 Z"/></g>
<g><path style="opacity:1" fill="#516565" d="M 341.5,245.5 C 338.5,246.833 335.5,248.167 332.5,249.5C 330.847,249.66 329.514,250.326 328.5,251.5C 326.883,252.038 325.216,252.371 323.5,252.5C 328.789,248.621 334.789,246.287 341.5,245.5 Z"/></g>
<g><path style="opacity:1" fill="#71432b" d="M 341.5,245.5 C 344.167,245.5 346.833,245.5 349.5,245.5C 343.941,246.787 338.274,248.12 332.5,249.5C 335.5,248.167 338.5,246.833 341.5,245.5 Z"/></g>
<g><path style="opacity:1" fill="#3e4542" d="M 379.5,250.5 C 382.5,251.5 384.5,253.5 385.5,256.5C 383.167,254.833 381.167,252.833 379.5,250.5 Z"/></g>
<g><path style="opacity:1" fill="#68e9ff" d="M 27.5,254.5 C 36.3674,252.76 41.7007,256.26 43.5,265C 43.3266,267.021 42.6599,268.854 41.5,270.5C 38.3352,269.939 37.6686,268.272 39.5,265.5C 37.1708,256.793 32.6708,255.46 26,261.5C 25.3333,263.833 25.3333,266.167 26,268.5C 27.3203,270.207 28.3203,271.874 29,273.5C 28.586,273.957 28.086,274.291 27.5,274.5C 19.5017,267.84 19.5017,261.173 27.5,254.5 Z"/></g>
<g><path style="opacity:1" fill="#64e9ff" d="M 443.5,254.5 C 449.059,253.231 452.892,255.231 455,260.5C 457.39,259.276 459.89,258.776 462.5,259C 461.663,260.011 461.33,261.178 461.5,262.5C 458.833,262.833 456.167,263.167 453.5,263.5C 452.986,265.512 452.82,267.512 453,269.5C 456.094,269.793 457.594,271.459 457.5,274.5C 450.786,273.206 444.286,271.206 438,268.5C 437.774,263.008 439.608,258.341 443.5,254.5 Z"/></g>
<g><path style="opacity:1" fill="#f9feff" d="M 444.5,257.5 C 450.352,257.906 452.019,260.906 449.5,266.5C 449.167,267.167 448.833,267.833 448.5,268.5C 446.271,267.423 443.937,266.756 441.5,266.5C 441.905,263.285 442.905,260.285 444.5,257.5 Z"/></g>
<g><path style="opacity:1" fill="#eba776" d="M 328.5,251.5 C 333.267,251.191 337.934,251.691 342.5,253C 349.812,256.938 351.979,262.771 349,270.5C 344.513,275.476 340.513,280.809 337,286.5C 335.491,290.85 333.824,295.183 332,299.5C 331.333,301.5 331.333,303.5 332,305.5C 338.264,295.703 347.097,290.37 358.5,289.5C 364.5,289.5 370.5,289.5 376.5,289.5C 377.568,290.434 378.901,290.768 380.5,290.5C 381.209,291.404 382.209,291.737 383.5,291.5C 390.092,293.852 392.258,298.518 390,305.5C 386.921,313.58 381.421,319.414 373.5,323C 356.42,329.145 338.753,331.145 320.5,329C 304.879,327.702 294.045,319.869 288,305.5C 287.505,303.527 287.338,301.527 287.5,299.5C 290.972,280.861 300.639,266.527 316.5,256.5C 319.331,255.921 321.664,254.588 323.5,252.5C 325.216,252.371 326.883,252.038 328.5,251.5 Z"/></g>
<g><path style="opacity:1" fill="#383933" d="M 386.5,258.5 C 390.845,269.834 388.178,279.501 378.5,287.5C 379.193,288.518 379.859,289.518 380.5,290.5C 378.901,290.768 377.568,290.434 376.5,289.5C 376.5,288.833 376.5,288.167 376.5,287.5C 385.781,279.995 389.114,270.328 386.5,258.5 Z"/></g>
<g><path style="opacity:1" fill="#323430" d="M 406.5,245.5 C 406.833,245.5 407.167,245.5 407.5,245.5C 406.986,252.586 406.986,259.586 407.5,266.5C 406.508,266.328 405.842,266.662 405.5,267.5C 403.545,272.089 401.545,276.755 399.5,281.5C 398.833,282.167 398.167,282.833 397.5,283.5C 394.703,285.795 392.036,288.295 389.5,291C 387.527,291.495 385.527,291.662 383.5,291.5C 382.209,291.737 381.209,291.404 380.5,290.5C 383.187,290.664 385.854,290.497 388.5,290C 391.333,287.167 394.167,284.333 397,281.5C 403.25,270.357 406.417,258.357 406.5,245.5 Z"/></g>
<g><path style="opacity:1" fill="#553828" d="M 167.5,263.5 C 168.117,263.611 168.617,263.944 169,264.5C 169.498,267.482 169.665,270.482 169.5,273.5C 174.194,274.3 177.694,272.633 180,268.5C 180.203,271.661 178.703,273.828 175.5,275C 172.412,275.847 169.579,275.347 167,273.5C 166.828,270.174 166.995,266.841 167.5,263.5 Z"/></g>
<g><path style="opacity:1" fill="#d89e6d" d="M 405.5,267.5 C 407.371,267.859 408.871,268.859 410,270.5C 410.499,274.486 410.666,278.486 410.5,282.5C 406.881,281.756 403.215,281.423 399.5,281.5C 401.545,276.755 403.545,272.089 405.5,267.5 Z"/></g>
<g><path style="opacity:1" fill="#462c20" d="M 111.5,262.5 C 112.097,262.735 112.43,263.235 112.5,264C 110.314,269.649 108.814,275.482 108,281.5C 106.595,274.63 107.761,268.297 111.5,262.5 Z"/></g>
<g><path style="opacity:1" fill="#4f423a" d="M 56.5,269.5 C 58.3936,272.939 60.5603,276.272 63,279.5C 73.9221,291.365 86.7554,300.365 101.5,306.5C 100.833,306.5 100.5,306.833 100.5,307.5C 91.3166,303.299 82.6499,298.299 74.5,292.5C 66.3057,286.781 59.9724,279.448 55.5,270.5C 56.1667,270.5 56.5,270.167 56.5,269.5 Z"/></g>
<g><path style="opacity:1" fill="#66e9ff" d="M 46.5,275.5 C 48.2726,276.314 48.7726,277.648 48,279.5C 46.1839,280.329 44.3506,281.163 42.5,282C 41.9355,286.067 43.2688,289.567 46.5,292.5C 48.9793,290.924 51.646,289.924 54.5,289.5C 54.67,290.822 54.3366,291.989 53.5,293C 48.6203,295.607 43.6203,297.94 38.5,300C 35.5598,300.886 34.5598,300.052 35.5,297.5C 37.8333,296.333 40.1667,295.167 42.5,294C 40.7929,290.752 38.9596,287.585 37,284.5C 35.1394,285.764 33.1394,286.764 31,287.5C 29.7202,287.387 28.8869,286.72 28.5,285.5C 34.4953,282.169 40.4953,278.835 46.5,275.5 Z"/></g>
<g><path style="opacity:1" fill="#66e9ff" d="M 433.5,276.5 C 434.5,276.5 435.5,276.5 436.5,276.5C 435.594,280.149 434.26,283.649 432.5,287C 433.914,288.548 435.58,289.215 437.5,289C 438.812,286.059 440.312,283.226 442,280.5C 442.925,281.047 443.758,281.713 444.5,282.5C 443.167,285.167 441.833,287.833 440.5,290.5C 441.655,291.95 443.155,292.95 445,293.5C 446.781,290.667 448.281,287.667 449.5,284.5C 450.833,283.167 452.167,283.167 453.5,284.5C 451.151,289.198 448.818,293.864 446.5,298.5C 440.954,295.56 435.287,292.894 429.5,290.5C 428.386,289.277 428.219,287.944 429,286.5C 430.786,283.264 432.286,279.93 433.5,276.5 Z"/></g>
<g><path style="opacity:1" fill="#402a1e" d="M 140.5,273.5 C 142.3,280.085 140.3,285.419 134.5,289.5C 134.167,289.333 133.833,289.167 133.5,289C 137.6,284.633 139.934,279.466 140.5,273.5 Z"/></g>
<g><path style="opacity:1" fill="#603c2b" d="M 194.5,270.5 C 195.649,270.791 196.316,271.624 196.5,273C 195.916,277.946 193.582,281.779 189.5,284.5C 189.167,284.167 188.833,283.833 188.5,283.5C 192.392,280.049 194.392,275.716 194.5,270.5 Z"/></g>
<g><path style="opacity:1" fill="#4c2e20" d="M 201.5,279.5 C 202.376,279.369 203.043,279.702 203.5,280.5C 202.974,282.23 201.974,283.564 200.5,284.5C 199.799,282.808 200.133,281.142 201.5,279.5 Z"/></g>
<g><path style="opacity:1" fill="#523c32" d="M 405.5,267.5 C 405.842,266.662 406.508,266.328 407.5,266.5C 410.168,267.457 411.668,269.457 412,272.5C 412.186,276.516 412.186,280.516 412,284.5C 414.103,287.059 415.936,289.726 417.5,292.5C 417.5,293.167 417.5,293.833 417.5,294.5C 415.263,291.379 412.929,288.213 410.5,285C 406.27,283.71 401.936,283.21 397.5,283.5C 398.167,282.833 398.833,282.167 399.5,281.5C 403.215,281.423 406.881,281.756 410.5,282.5C 410.666,278.486 410.499,274.486 410,270.5C 408.871,268.859 407.371,267.859 405.5,267.5 Z"/></g>
<g><path style="opacity:1" fill="#d47947" d="M 397.5,283.5 C 401.936,283.21 406.27,283.71 410.5,285C 412.929,288.213 415.263,291.379 417.5,294.5C 417.963,297.255 419.63,298.922 422.5,299.5C 424.289,303.685 425.122,308.019 425,312.5C 422.914,310.751 420.581,309.417 418,308.5C 416.72,308.613 415.887,309.28 415.5,310.5C 418.9,312.856 422.233,315.189 425.5,317.5C 421.958,318.675 418.291,319.341 414.5,319.5C 412.477,318.479 410.477,318.812 408.5,320.5C 394.564,324.487 381.231,329.987 368.5,337C 362.449,338.843 356.449,340.677 350.5,342.5C 341.59,344.162 332.59,344.829 323.5,344.5C 319.165,344.083 314.832,343.583 310.5,343C 304.737,340.915 299.07,338.748 293.5,336.5C 290.5,335.5 288.5,333.5 287.5,330.5C 283.559,320.083 283.559,309.75 287.5,299.5C 287.338,301.527 287.505,303.527 288,305.5C 294.045,319.869 304.879,327.702 320.5,329C 338.753,331.145 356.42,329.145 373.5,323C 381.421,319.414 386.921,313.58 390,305.5C 392.258,298.518 390.092,293.852 383.5,291.5C 385.527,291.662 387.527,291.495 389.5,291C 392.036,288.295 394.703,285.795 397.5,283.5 Z"/></g>
<g><path style="opacity:1" fill="#654028" d="M 376.5,287.5 C 376.5,288.167 376.5,288.833 376.5,289.5C 370.5,289.5 364.5,289.5 358.5,289.5C 356.621,289.607 356.288,289.107 357.5,288C 363.825,287.5 370.158,287.334 376.5,287.5 Z"/></g>
<g><path style="opacity:1" fill="#714b35" d="M 219.5,292.5 C 219.5,291.833 219.5,291.167 219.5,290.5C 225.5,285.599 232.167,284.432 239.5,287C 232.242,286.979 225.576,288.813 219.5,292.5 Z"/></g>
<g><path style="opacity:1" fill="#b9b8b6" d="M 74.5,292.5 C 82.6499,298.299 91.3166,303.299 100.5,307.5C 105.473,310.321 110.473,313.155 115.5,316C 108.491,315.911 102.491,318.245 97.5,323C 96.1857,325.605 96.1857,328.105 97.5,330.5C 97.8844,333.769 99.2177,336.603 101.5,339C 106.823,339.499 112.156,339.666 117.5,339.5C 118.151,338.909 118.818,338.243 119.5,337.5C 120.518,338.193 121.518,338.859 122.5,339.5C 124.527,341.18 126.861,342.347 129.5,343C 135.5,343.333 141.5,343.667 147.5,344C 160.087,350.364 173.421,353.53 187.5,353.5C 203.784,356.278 219.118,353.444 233.5,345C 239.593,338.91 244.927,332.244 249.5,325C 255.583,325.848 261.749,326.348 268,326.5C 272.526,326.359 277.026,326.025 281.5,325.5C 282.675,325.281 283.675,325.614 284.5,326.5C 284.815,328.483 285.815,329.816 287.5,330.5C 288.5,333.5 290.5,335.5 293.5,336.5C 299.276,341.156 305.942,343.99 313.5,345C 321.962,346.635 330.295,346.801 338.5,345.5C 342.616,345.459 346.616,344.793 350.5,343.5C 355.598,342.809 360.598,341.642 365.5,340C 377.586,334.526 389.586,328.86 401.5,323C 403.134,322.506 404.801,322.34 406.5,322.5C 401.956,333.588 405.623,339.421 417.5,340C 423.056,337.728 425.723,333.561 425.5,327.5C 424.5,327.5 423.5,327.5 422.5,327.5C 421.795,335.238 417.795,337.738 410.5,335C 407.903,332.683 407.07,329.85 408,326.5C 409.914,324.144 412.081,322.144 414.5,320.5C 418.215,321.632 421.882,321.299 425.5,319.5C 426.298,319.043 426.631,318.376 426.5,317.5C 428.555,318.948 430.722,320.281 433,321.5C 436.209,319.532 436.042,317.865 432.5,316.5C 437.713,316.913 440.38,314.58 440.5,309.5C 441.267,308.828 441.934,307.995 442.5,307C 440.866,306.506 439.199,306.34 437.5,306.5C 434.345,303.764 430.678,301.764 426.5,300.5C 425.937,296.777 424.603,296.111 422.5,298.5C 421.055,296.937 419.389,295.604 417.5,294.5C 417.5,293.833 417.5,293.167 417.5,292.5C 431.363,295.14 444.696,299.64 457.5,306C 460.63,308.128 463.463,310.628 466,313.5C 468.7,319.267 467.533,324.1 462.5,328C 445.817,337.952 427.817,344.452 408.5,347.5C 402.851,345.506 397.185,343.506 391.5,341.5C 389.734,341.434 388.734,342.268 388.5,344C 389.606,346.489 390.606,348.989 391.5,351.5C 298.14,363.649 204.806,363.482 111.5,351C 102.416,349.483 93.4156,347.65 84.5,345.5C 85.58,342.257 85.7466,338.924 85,335.5C 82.7046,332.203 80.038,329.203 77,326.5C 72.274,330.735 67.4406,334.735 62.5,338.5C 53.9374,336.469 46.4374,332.469 40,326.5C 34.9455,320.526 35.4455,315.192 41.5,310.5C 41.9081,311.643 42.5748,312.643 43.5,313.5C 49.6641,310.252 55.6641,306.752 61.5,303C 60.9221,301.583 59.9221,300.75 58.5,300.5C 58.6107,299.883 58.944,299.383 59.5,299C 65.5595,298.767 70.5595,296.601 74.5,292.5 Z"/></g>
<g><path style="opacity:1" fill="#503324" d="M 417.5,294.5 C 419.389,295.604 421.055,296.937 422.5,298.5C 422.5,298.833 422.5,299.167 422.5,299.5C 419.63,298.922 417.963,297.255 417.5,294.5 Z"/></g>
<g><path style="opacity:1" fill="#62dced" d="M 426.5,300.5 C 426.557,301.609 426.89,302.609 427.5,303.5C 427.5,304.5 427.5,305.5 427.5,306.5C 429.833,306.5 432.167,306.5 434.5,306.5C 435.5,306.5 436.5,306.5 437.5,306.5C 439.199,306.34 440.866,306.506 442.5,307C 441.934,307.995 441.267,308.828 440.5,309.5C 439.508,309.328 438.842,309.662 438.5,310.5C 435.428,310.183 432.428,310.516 429.5,311.5C 429.994,313.026 430.661,314.359 431.5,315.5C 431.5,316.167 431.833,316.5 432.5,316.5C 436.042,317.865 436.209,319.532 433,321.5C 430.722,320.281 428.555,318.948 426.5,317.5C 426.167,317.5 425.833,317.5 425.5,317.5C 422.233,315.189 418.9,312.856 415.5,310.5C 415.887,309.28 416.72,308.613 418,308.5C 420.581,309.417 422.914,310.751 425,312.5C 425.122,308.019 424.289,303.685 422.5,299.5C 422.5,299.167 422.5,298.833 422.5,298.5C 424.603,296.111 425.937,296.777 426.5,300.5 Z"/></g>
<g><path style="opacity:1" fill="#5fe2f7" d="M 58.5,300.5 C 59.9221,300.75 60.9221,301.583 61.5,303C 55.6641,306.752 49.6641,310.252 43.5,313.5C 42.5748,312.643 41.9081,311.643 41.5,310.5C 47.1243,307.234 52.791,303.901 58.5,300.5 Z"/></g>
<g><path style="opacity:1" fill="#715c4e" d="M 426.5,300.5 C 430.678,301.764 434.345,303.764 437.5,306.5C 436.5,306.5 435.5,306.5 434.5,306.5C 432.815,304.182 430.481,303.182 427.5,303.5C 426.89,302.609 426.557,301.609 426.5,300.5 Z"/></g>
<g><path style="opacity:1" fill="#c77647" d="M 427.5,303.5 C 430.481,303.182 432.815,304.182 434.5,306.5C 432.167,306.5 429.833,306.5 427.5,306.5C 427.5,305.5 427.5,304.5 427.5,303.5 Z"/></g>
<g><path style="opacity:1" fill="#64412f" d="M 316.5,255.5 C 316.5,255.833 316.5,256.167 316.5,256.5C 300.639,266.527 290.972,280.861 287.5,299.5C 283.559,309.75 283.559,320.083 287.5,330.5C 285.815,329.816 284.815,328.483 284.5,326.5C 283.675,325.614 282.675,325.281 281.5,325.5C 280.081,324.549 278.415,324.216 276.5,324.5C 278.265,323.539 280.265,323.205 282.5,323.5C 282.374,308.098 285.541,293.431 292,279.5C 298.067,269.265 306.234,261.265 316.5,255.5 Z"/></g>
<g><path style="opacity:1" fill="#ca7748" d="M 438.5,310.5 C 437.473,313.858 435.14,315.525 431.5,315.5C 430.661,314.359 429.994,313.026 429.5,311.5C 432.428,310.516 435.428,310.183 438.5,310.5 Z"/></g>
<g><path style="opacity:1" fill="#60e1f6" d="M 65.5,310.5 C 67.2726,311.314 67.7726,312.648 67,314.5C 62.376,317.294 58.2093,320.627 54.5,324.5C 56.3929,326.952 57.7263,329.619 58.5,332.5C 56.6096,332.703 55.1096,332.037 54,330.5C 52.3676,328.067 50.8676,325.567 49.5,323C 55.0001,318.994 60.3334,314.828 65.5,310.5 Z"/></g>
<g><path style="opacity:1" fill="#392d26" d="M 440.5,309.5 C 440.38,314.58 437.713,316.913 432.5,316.5C 431.833,316.5 431.5,316.167 431.5,315.5C 435.14,315.525 437.473,313.858 438.5,310.5C 438.842,309.662 439.508,309.328 440.5,309.5 Z"/></g>
<g><path style="opacity:1" fill="#513525" d="M 219.5,290.5 C 219.5,291.167 219.5,291.833 219.5,292.5C 216.699,293.735 214.032,295.235 211.5,297C 188.6,318.975 161.6,326.808 130.5,320.5C 131.167,320.5 131.5,320.167 131.5,319.5C 140.119,320.608 148.785,320.775 157.5,320C 171.804,319.232 184.804,314.899 196.5,307C 203.506,300.481 211.173,294.981 219.5,290.5 Z"/></g>
<g><path style="opacity:1" fill="#322822" d="M 100.5,307.5 C 100.5,306.833 100.833,306.5 101.5,306.5C 106.303,308.735 110.97,311.235 115.5,314C 120.607,316.536 125.94,318.369 131.5,319.5C 131.5,320.167 131.167,320.5 130.5,320.5C 122.86,319.404 115.193,318.904 107.5,319C 104.059,320.776 100.892,322.943 98,325.5C 97.5065,327.134 97.3398,328.801 97.5,330.5C 96.1857,328.105 96.1857,325.605 97.5,323C 102.491,318.245 108.491,315.911 115.5,316C 110.473,313.155 105.473,310.321 100.5,307.5 Z"/></g>
<g><path style="opacity:1" fill="#5ce2f8" d="M 414.5,319.5 C 414.5,319.833 414.5,320.167 414.5,320.5C 412.081,322.144 409.914,324.144 408,326.5C 407.07,329.85 407.903,332.683 410.5,335C 417.795,337.738 421.795,335.238 422.5,327.5C 423.5,327.5 424.5,327.5 425.5,327.5C 425.723,333.561 423.056,337.728 417.5,340C 405.623,339.421 401.956,333.588 406.5,322.5C 407.5,322.167 408.167,321.5 408.5,320.5C 410.477,318.812 412.477,318.479 414.5,319.5 Z"/></g>
<g><path style="opacity:1" fill="#4c372c" d="M 425.5,317.5 C 425.833,317.5 426.167,317.5 426.5,317.5C 426.631,318.376 426.298,319.043 425.5,319.5C 421.882,321.299 418.215,321.632 414.5,320.5C 414.5,320.167 414.5,319.833 414.5,319.5C 418.291,319.341 421.958,318.675 425.5,317.5 Z"/></g>
<g><path style="opacity:1" fill="#61e5fb" d="M 84.5,345.5 C 81.3657,350.119 77.0324,351.619 71.5,350C 68.0354,347.537 64.8688,344.704 62,341.5C 61.5304,340.423 61.6971,339.423 62.5,338.5C 67.4406,334.735 72.274,330.735 77,326.5C 80.038,329.203 82.7046,332.203 85,335.5C 85.7466,338.924 85.58,342.257 84.5,345.5 Z"/></g>
<g><path style="opacity:1" fill="#babdbc" d="M 80.5,343.5 C 75.9623,343.282 71.6289,342.282 67.5,340.5C 70.3054,337.169 73.4721,334.169 77,331.5C 81.1439,334.116 82.8106,337.783 82,342.5C 81.6174,343.056 81.1174,343.389 80.5,343.5 Z"/></g>
<g><path style="opacity:1" fill="#3a2e27" d="M 97.5,330.5 C 99.2632,333.02 101.263,335.353 103.5,337.5C 108.167,338.167 112.833,338.833 117.5,339.5C 112.156,339.666 106.823,339.499 101.5,339C 99.2177,336.603 97.8844,333.769 97.5,330.5 Z"/></g>
<g><path style="opacity:1" fill="#684f3f" d="M 123.5,338.5 C 122.833,338.5 122.5,338.833 122.5,339.5C 121.518,338.859 120.518,338.193 119.5,337.5C 118.818,338.243 118.151,338.909 117.5,339.5C 112.833,338.833 108.167,338.167 103.5,337.5C 108.167,337.5 112.833,337.5 117.5,337.5C 117.756,335.088 116.756,333.421 114.5,332.5C 115,332.167 115.5,331.833 116,331.5C 118.503,333.847 121.003,336.181 123.5,338.5 Z"/></g>
<g><path style="opacity:1" fill="#513a2f" d="M 408.5,320.5 C 408.167,321.5 407.5,322.167 406.5,322.5C 404.801,322.34 403.134,322.506 401.5,323C 389.586,328.86 377.586,334.526 365.5,340C 360.598,341.642 355.598,342.809 350.5,343.5C 350.5,343.167 350.5,342.833 350.5,342.5C 356.449,340.677 362.449,338.843 368.5,337C 381.231,329.987 394.564,324.487 408.5,320.5 Z"/></g>
<g><path style="opacity:1" fill="#f6fcfd" d="M 67.5,340.5 C 71.6289,342.282 75.9623,343.282 80.5,343.5C 78.9962,347.051 76.3295,348.218 72.5,347C 70.5,345 68.5,343 66.5,341C 66.7284,340.601 67.0618,340.435 67.5,340.5 Z"/></g>
<g><path style="opacity:1" fill="#62e6fc" d="M 408.5,347.5 C 409.398,348.158 410.398,348.824 411.5,349.5C 411.333,349.833 411.167,350.167 411,350.5C 408.867,351.418 406.7,351.584 404.5,351C 402.167,353.333 399.833,355.667 397.5,358C 399.853,360.559 399.687,362.726 397,364.5C 394.682,360.381 392.848,356.047 391.5,351.5C 390.606,348.989 389.606,346.489 388.5,344C 388.734,342.268 389.734,341.434 391.5,341.5C 397.185,343.506 402.851,345.506 408.5,347.5 Z"/></g>
<g><path style="opacity:1" fill="#4b3931" d="M 293.5,336.5 C 299.07,338.748 304.737,340.915 310.5,343C 314.832,343.583 319.165,344.083 323.5,344.5C 328.305,345.487 333.305,345.821 338.5,345.5C 330.295,346.801 321.962,346.635 313.5,345C 305.942,343.99 299.276,341.156 293.5,336.5 Z"/></g>
<g><path style="opacity:1" fill="#805238" d="M 350.5,342.5 C 350.5,342.833 350.5,343.167 350.5,343.5C 346.616,344.793 342.616,345.459 338.5,345.5C 333.305,345.821 328.305,345.487 323.5,344.5C 332.59,344.829 341.59,344.162 350.5,342.5 Z"/></g>
<g><path style="opacity:1" fill="#41342d" d="M 276.5,324.5 C 278.415,324.216 280.081,324.549 281.5,325.5C 277.026,326.025 272.526,326.359 268,326.5C 261.749,326.348 255.583,325.848 249.5,325C 244.927,332.244 239.593,338.91 233.5,345C 219.118,353.444 203.784,356.278 187.5,353.5C 193.026,353.821 198.36,353.488 203.5,352.5C 214.309,351.799 224.309,348.633 233.5,343C 240.778,334.276 247.445,325.109 253.5,315.5C 253.271,317.948 253.271,320.448 253.5,323C 261.095,324.356 268.762,324.856 276.5,324.5 Z"/></g>
<g><path style="opacity:1" fill="#d2d7d7" d="M 392.5,345.5 C 395.479,346.654 398.479,347.82 401.5,349C 399.983,350.685 398.316,352.185 396.5,353.5C 394.97,350.896 393.637,348.229 392.5,345.5 Z"/></g>
<g><path style="opacity:1" fill="#493b32" d="M 122.5,339.5 C 122.5,338.833 122.833,338.5 123.5,338.5C 125.359,339.594 127.359,340.427 129.5,341C 135.5,341.333 141.5,341.667 147.5,342C 165.162,350.565 183.829,354.065 203.5,352.5C 198.36,353.488 193.026,353.821 187.5,353.5C 173.421,353.53 160.087,350.364 147.5,344C 141.5,343.667 135.5,343.333 129.5,343C 126.861,342.347 124.527,341.18 122.5,339.5 Z"/></g>
<g><path style="opacity:1" fill="#66e9ff" d="M 101.5,352.5 C 103.252,352.418 104.252,353.251 104.5,355C 102.356,360.416 100.856,365.916 100,371.5C 104.582,368.124 109.415,365.124 114.5,362.5C 115.646,363.145 116.646,363.978 117.5,365C 111.064,368.634 104.564,372.134 98,375.5C 96.1147,375.138 95.2814,373.971 95.5,372C 97.2738,365.398 99.2738,358.898 101.5,352.5 Z"/></g>
<g><path style="opacity:1" fill="#64e9ff" d="M 374.5,356.5 C 382.07,356.23 385.07,359.73 383.5,367C 386.089,368.197 388.756,369.197 391.5,370C 390.335,371.084 389.002,371.917 387.5,372.5C 383.678,369.504 380.344,369.837 377.5,373.5C 378.128,375.258 379.128,376.758 380.5,378C 379.667,378.833 378.833,379.667 378,380.5C 373.592,375.348 369.425,370.015 365.5,364.5C 367.968,361.121 370.968,358.454 374.5,356.5 Z"/></g>
<g><path style="opacity:1" fill="#f7feff" d="M 375.5,359.5 C 379.976,359.822 381.476,362.156 380,366.5C 376.077,371.966 372.91,371.466 370.5,365C 371.742,362.728 373.408,360.894 375.5,359.5 Z"/></g>
<g><path style="opacity:1" fill="#67e9ff" d="M 357.5,368.5 C 359.346,368.222 360.68,368.889 361.5,370.5C 359.611,371.604 357.945,372.937 356.5,374.5C 359.124,379.585 362.124,384.418 365.5,389C 364.892,389.87 364.059,390.37 363,390.5C 359.285,386.106 355.785,381.44 352.5,376.5C 350.668,377.248 349.001,378.248 347.5,379.5C 346.713,378.758 346.047,377.925 345.5,377C 349.742,374.39 353.742,371.557 357.5,368.5 Z"/></g>
<g><path style="opacity:1" fill="#65e9ff" d="M 127.5,371.5 C 129.2,372.016 130.533,373.016 131.5,374.5C 130.035,381.425 129.035,388.425 128.5,395.5C 127.178,395.67 126.011,395.337 125,394.5C 125.218,392.413 125.051,390.413 124.5,388.5C 122.032,387.197 119.699,385.697 117.5,384C 115.583,384.027 113.916,384.861 112.5,386.5C 111.328,386.081 110.328,385.415 109.5,384.5C 115.567,380.145 121.567,375.812 127.5,371.5 Z"/></g>
<g><path style="opacity:1" fill="#f4fdff" d="M 126.5,376.5 C 127.043,376.56 127.376,376.893 127.5,377.5C 126.926,380.177 126.259,382.843 125.5,385.5C 123.611,384.396 121.945,383.063 120.5,381.5C 122.519,379.81 124.519,378.144 126.5,376.5 Z"/></g>
<g><path style="opacity:1" fill="#6be9ff" d="M 145.5,383.5 C 151.341,383.419 155.674,385.919 158.5,391C 157.892,391.87 157.059,392.37 156,392.5C 151.96,386.889 147.293,386.222 142,390.5C 139.865,398.385 143.032,402.218 151.5,402C 152.833,403 152.833,404 151.5,405C 140.683,405.509 136.183,400.342 138,389.5C 140.134,386.847 142.634,384.847 145.5,383.5 Z"/></g>
<g><path style="opacity:1" fill="#66e9ff" d="M 327.5,385.5 C 328.5,385.5 329.5,385.5 330.5,385.5C 332.259,391.691 334.592,397.691 337.5,403.5C 336.307,405.384 334.641,405.884 332.5,405C 328.633,402.302 324.633,399.802 320.5,397.5C 320.167,397.833 319.833,398.167 319.5,398.5C 320.972,401.945 322.306,405.445 323.5,409C 323.387,410.28 322.72,411.113 321.5,411.5C 318.243,405.319 315.243,398.985 312.5,392.5C 313.328,391.585 314.328,390.919 315.5,390.5C 320.821,393.725 326.154,396.559 331.5,399C 329.74,395.225 328.073,391.392 326.5,387.5C 326.863,386.817 327.196,386.15 327.5,385.5 Z"/></g>
<g><path style="opacity:1" fill="#63e9ff" d="M 167.5,393.5 C 173.624,392.231 178.291,394.231 181.5,399.5C 180.758,400.287 179.925,400.953 179,401.5C 174.283,394.848 169.617,394.848 165,401.5C 164.355,409.356 167.855,412.356 175.5,410.5C 176.731,411.651 176.731,412.817 175.5,414C 165.209,415.376 160.375,410.876 161,400.5C 162.694,397.642 164.861,395.309 167.5,393.5 Z"/></g>
<g><path style="opacity:1" fill="#69e9ff" d="M 295.5,396.5 C 309.363,397.727 312.696,404.227 305.5,416C 295.711,420.937 289.711,418.104 287.5,407.5C 287.875,402.13 290.542,398.464 295.5,396.5 Z"/></g>
<g><path style="opacity:1" fill="#66e9ff" d="M 189.5,398.5 C 190.5,398.5 191.5,398.5 192.5,398.5C 191.326,405.529 189.993,412.529 188.5,419.5C 186.654,419.778 185.32,419.111 184.5,417.5C 186.044,411.106 187.71,404.773 189.5,398.5 Z"/></g>
<g><path style="opacity:1" fill="#fcfeff" d="M 295.5,400.5 C 304.85,400.365 307.517,404.532 303.5,413C 294.242,416.295 290.409,413.128 292,403.5C 293.145,402.364 294.312,401.364 295.5,400.5 Z"/></g>
<g><path style="opacity:1" fill="#67e9ff" d="M 201.5,401.5 C 203.144,401.286 204.644,401.62 206,402.5C 208.412,407.659 211.079,412.659 214,417.5C 214.665,412.844 215.165,408.177 215.5,403.5C 216.833,403.5 218.167,403.5 219.5,403.5C 218.826,410.223 217.826,416.89 216.5,423.5C 215.349,424.731 214.183,424.731 213,423.5C 210.333,418.833 207.667,414.167 205,409.5C 203.523,413.696 202.689,418.029 202.5,422.5C 201.167,422.5 199.833,422.5 198.5,422.5C 199.222,415.447 200.222,408.447 201.5,401.5 Z"/></g>
<g><path style="opacity:1" fill="#6be9ff" d="M 274.5,401.5 C 275.833,401.5 277.167,401.5 278.5,401.5C 279.608,408.484 280.608,415.484 281.5,422.5C 280.167,422.5 278.833,422.5 277.5,422.5C 276.608,415.484 275.608,408.484 274.5,401.5 Z"/></g>
<g><path style="opacity:1" fill="#63e8ff" d="M 253.5,403.5 C 258.167,403.5 262.833,403.5 267.5,403.5C 267.5,404.5 267.5,405.5 267.5,406.5C 265.5,406.5 263.5,406.5 261.5,406.5C 262.226,412.489 262.893,418.489 263.5,424.5C 262.167,424.5 260.833,424.5 259.5,424.5C 258.866,418.855 258.532,413.189 258.5,407.5C 256.167,407.5 253.833,407.5 251.5,407.5C 251.527,405.801 252.194,404.467 253.5,403.5 Z"/></g>
<g><path style="opacity:1" fill="#61e8ff" d="M 234.5,404.5 C 236.144,404.286 237.644,404.62 239,405.5C 241.798,412.089 244.298,418.755 246.5,425.5C 245.167,425.5 243.833,425.5 242.5,425.5C 242.32,421.588 240.153,419.921 236,420.5C 232.24,420.108 229.74,421.608 228.5,425C 227.552,425.483 226.552,425.649 225.5,425.5C 228.221,418.39 231.221,411.39 234.5,404.5 Z"/></g>
<g><path style="opacity:1" fill="#f7feff" d="M 235.5,409.5 C 237.567,411.318 238.9,413.651 239.5,416.5C 237.167,417.833 234.833,417.833 232.5,416.5C 233.788,414.261 234.788,411.928 235.5,409.5 Z"/></g>
</svg>
