<svg xmlns="http://www.w3.org/2000/svg" version="1.1" xmlns:xlink="http://www.w3.org/1999/xlink" xmlns:svgjs="http://svgjs.dev/svgjs" viewBox="0 0 800 800" opacity="0.92"><defs><linearGradient gradientTransform="rotate(270)" x1="50%" y1="0%" x2="50%" y2="100%" id="sssquiggly-grad"><stop stop-color="hsl(206, 75%, 49%)" stop-opacity="1" offset="0%"></stop><stop stop-color="hsl(331, 90%, 56%)" stop-opacity="1" offset="100%"></stop></linearGradient></defs><g stroke-width="2" stroke="url(#sssquiggly-grad)" fill="none" stroke-linecap="round" transform="matrix(1,0,0,1,-5,-160.83683013916016)"><path d="M10,10C24.583333333333332,15.625,48.75,40.75,80,37C111.25,33.25,126.66666666666666,-11.333333333333332,160,-8C193.33333333333334,-4.666666666666667,206.66666666666666,53,240,53C273.3333333333333,53,286.6666666666667,-4.041666666666667,320,-8C353.3333333333333,-11.958333333333332,366.6666666666667,33.166666666666664,400,34C433.3333333333333,34.833333333333336,446.6666666666667,-10.25,480,-4C513.3333333333334,2.25,526.6666666666666,69.20833333333333,560,64C593.3333333333334,58.791666666666664,606.6666666666666,-29.208333333333332,640,-29C673.3333333333334,-28.791666666666668,686.6666666666666,57.708333333333336,720,65C753.3333333333334,72.29166666666667,783.3333333333334,18.291666666666668,800,6"></path><path d="M10,10C24.583333333333332,15.625,48.75,40.75,80,37C111.25,33.25,126.66666666666666,-11.333333333333332,160,-8C193.33333333333334,-4.666666666666667,206.66666666666666,53,240,53C273.3333333333333,53,286.6666666666667,-4.041666666666667,320,-8C353.3333333333333,-11.958333333333332,366.6666666666667,33.166666666666664,400,34C433.3333333333333,34.833333333333336,446.6666666666667,-10.25,480,-4C513.3333333333334,2.25,526.6666666666666,69.20833333333333,560,64C593.3333333333334,58.791666666666664,606.6666666666666,-29.208333333333332,640,-29C673.3333333333334,-28.791666666666668,686.6666666666666,57.708333333333336,720,65C753.3333333333334,72.29166666666667,783.3333333333334,18.291666666666668,800,6" transform="matrix(1,0,0,1,0,1085)"></path><path d="M10,10C24.583333333333332,15.625,48.75,40.75,80,37C111.25,33.25,126.66666666666666,-11.333333333333332,160,-8C193.33333333333334,-4.666666666666667,206.66666666666666,53,240,53C273.3333333333333,53,286.6666666666667,-4.041666666666667,320,-8C353.3333333333333,-11.958333333333332,366.6666666666667,33.166666666666664,400,34C433.3333333333333,34.833333333333336,446.6666666666667,-10.25,480,-4C513.3333333333334,2.25,526.6666666666666,69.20833333333333,560,64C593.3333333333334,58.791666666666664,606.6666666666666,-29.208333333333332,640,-29C673.3333333333334,-28.791666666666668,686.6666666666666,57.708333333333336,720,65C753.3333333333334,72.29166666666667,783.3333333333334,18.291666666666668,800,6" transform="matrix(1,0,0,1,0,1054)"></path><path d="M10,10C24.583333333333332,15.625,48.75,40.75,80,37C111.25,33.25,126.66666666666666,-11.333333333333332,160,-8C193.33333333333334,-4.666666666666667,206.66666666666666,53,240,53C273.3333333333333,53,286.6666666666667,-4.041666666666667,320,-8C353.3333333333333,-11.958333333333332,366.6666666666667,33.166666666666664,400,34C433.3333333333333,34.833333333333336,446.6666666666667,-10.25,480,-4C513.3333333333334,2.25,526.6666666666666,69.20833333333333,560,64C593.3333333333334,58.791666666666664,606.6666666666666,-29.208333333333332,640,-29C673.3333333333334,-28.791666666666668,686.6666666666666,57.708333333333336,720,65C753.3333333333334,72.29166666666667,783.3333333333334,18.291666666666668,800,6" transform="matrix(1,0,0,1,0,1023)"></path><path d="M10,10C24.583333333333332,15.625,48.75,40.75,80,37C111.25,33.25,126.66666666666666,-11.333333333333332,160,-8C193.33333333333334,-4.666666666666667,206.66666666666666,53,240,53C273.3333333333333,53,286.6666666666667,-4.041666666666667,320,-8C353.3333333333333,-11.958333333333332,366.6666666666667,33.166666666666664,400,34C433.3333333333333,34.833333333333336,446.6666666666667,-10.25,480,-4C513.3333333333334,2.25,526.6666666666666,69.20833333333333,560,64C593.3333333333334,58.791666666666664,606.6666666666666,-29.208333333333332,640,-29C673.3333333333334,-28.791666666666668,686.6666666666666,57.708333333333336,720,65C753.3333333333334,72.29166666666667,783.3333333333334,18.291666666666668,800,6" transform="matrix(1,0,0,1,0,992)"></path><path d="M10,10C24.583333333333332,15.625,48.75,40.75,80,37C111.25,33.25,126.66666666666666,-11.333333333333332,160,-8C193.33333333333334,-4.666666666666667,206.66666666666666,53,240,53C273.3333333333333,53,286.6666666666667,-4.041666666666667,320,-8C353.3333333333333,-11.958333333333332,366.6666666666667,33.166666666666664,400,34C433.3333333333333,34.833333333333336,446.6666666666667,-10.25,480,-4C513.3333333333334,2.25,526.6666666666666,69.20833333333333,560,64C593.3333333333334,58.791666666666664,606.6666666666666,-29.208333333333332,640,-29C673.3333333333334,-28.791666666666668,686.6666666666666,57.708333333333336,720,65C753.3333333333334,72.29166666666667,783.3333333333334,18.291666666666668,800,6" transform="matrix(1,0,0,1,0,961)"></path><path d="M10,10C24.583333333333332,15.625,48.75,40.75,80,37C111.25,33.25,126.66666666666666,-11.333333333333332,160,-8C193.33333333333334,-4.666666666666667,206.66666666666666,53,240,53C273.3333333333333,53,286.6666666666667,-4.041666666666667,320,-8C353.3333333333333,-11.958333333333332,366.6666666666667,33.166666666666664,400,34C433.3333333333333,34.833333333333336,446.6666666666667,-10.25,480,-4C513.3333333333334,2.25,526.6666666666666,69.20833333333333,560,64C593.3333333333334,58.791666666666664,606.6666666666666,-29.208333333333332,640,-29C673.3333333333334,-28.791666666666668,686.6666666666666,57.708333333333336,720,65C753.3333333333334,72.29166666666667,783.3333333333334,18.291666666666668,800,6" transform="matrix(1,0,0,1,0,930)"></path><path d="M10,10C24.583333333333332,15.625,48.75,40.75,80,37C111.25,33.25,126.66666666666666,-11.333333333333332,160,-8C193.33333333333334,-4.666666666666667,206.66666666666666,53,240,53C273.3333333333333,53,286.6666666666667,-4.041666666666667,320,-8C353.3333333333333,-11.958333333333332,366.6666666666667,33.166666666666664,400,34C433.3333333333333,34.833333333333336,446.6666666666667,-10.25,480,-4C513.3333333333334,2.25,526.6666666666666,69.20833333333333,560,64C593.3333333333334,58.791666666666664,606.6666666666666,-29.208333333333332,640,-29C673.3333333333334,-28.791666666666668,686.6666666666666,57.708333333333336,720,65C753.3333333333334,72.29166666666667,783.3333333333334,18.291666666666668,800,6" transform="matrix(1,0,0,1,0,899)"></path><path d="M10,10C24.583333333333332,15.625,48.75,40.75,80,37C111.25,33.25,126.66666666666666,-11.333333333333332,160,-8C193.33333333333334,-4.666666666666667,206.66666666666666,53,240,53C273.3333333333333,53,286.6666666666667,-4.041666666666667,320,-8C353.3333333333333,-11.958333333333332,366.6666666666667,33.166666666666664,400,34C433.3333333333333,34.833333333333336,446.6666666666667,-10.25,480,-4C513.3333333333334,2.25,526.6666666666666,69.20833333333333,560,64C593.3333333333334,58.791666666666664,606.6666666666666,-29.208333333333332,640,-29C673.3333333333334,-28.791666666666668,686.6666666666666,57.708333333333336,720,65C753.3333333333334,72.29166666666667,783.3333333333334,18.291666666666668,800,6" transform="matrix(1,0,0,1,0,868)"></path><path d="M10,10C24.583333333333332,15.625,48.75,40.75,80,37C111.25,33.25,126.66666666666666,-11.333333333333332,160,-8C193.33333333333334,-4.666666666666667,206.66666666666666,53,240,53C273.3333333333333,53,286.6666666666667,-4.041666666666667,320,-8C353.3333333333333,-11.958333333333332,366.6666666666667,33.166666666666664,400,34C433.3333333333333,34.833333333333336,446.6666666666667,-10.25,480,-4C513.3333333333334,2.25,526.6666666666666,69.20833333333333,560,64C593.3333333333334,58.791666666666664,606.6666666666666,-29.208333333333332,640,-29C673.3333333333334,-28.791666666666668,686.6666666666666,57.708333333333336,720,65C753.3333333333334,72.29166666666667,783.3333333333334,18.291666666666668,800,6" transform="matrix(1,0,0,1,0,837)"></path><path d="M10,10C24.583333333333332,15.625,48.75,40.75,80,37C111.25,33.25,126.66666666666666,-11.333333333333332,160,-8C193.33333333333334,-4.666666666666667,206.66666666666666,53,240,53C273.3333333333333,53,286.6666666666667,-4.041666666666667,320,-8C353.3333333333333,-11.958333333333332,366.6666666666667,33.166666666666664,400,34C433.3333333333333,34.833333333333336,446.6666666666667,-10.25,480,-4C513.3333333333334,2.25,526.6666666666666,69.20833333333333,560,64C593.3333333333334,58.791666666666664,606.6666666666666,-29.208333333333332,640,-29C673.3333333333334,-28.791666666666668,686.6666666666666,57.708333333333336,720,65C753.3333333333334,72.29166666666667,783.3333333333334,18.291666666666668,800,6" transform="matrix(1,0,0,1,0,806)"></path><path d="M10,10C24.583333333333332,15.625,48.75,40.75,80,37C111.25,33.25,126.66666666666666,-11.333333333333332,160,-8C193.33333333333334,-4.666666666666667,206.66666666666666,53,240,53C273.3333333333333,53,286.6666666666667,-4.041666666666667,320,-8C353.3333333333333,-11.958333333333332,366.6666666666667,33.166666666666664,400,34C433.3333333333333,34.833333333333336,446.6666666666667,-10.25,480,-4C513.3333333333334,2.25,526.6666666666666,69.20833333333333,560,64C593.3333333333334,58.791666666666664,606.6666666666666,-29.208333333333332,640,-29C673.3333333333334,-28.791666666666668,686.6666666666666,57.708333333333336,720,65C753.3333333333334,72.29166666666667,783.3333333333334,18.291666666666668,800,6" transform="matrix(1,0,0,1,0,775)"></path><path d="M10,10C24.583333333333332,15.625,48.75,40.75,80,37C111.25,33.25,126.66666666666666,-11.333333333333332,160,-8C193.33333333333334,-4.666666666666667,206.66666666666666,53,240,53C273.3333333333333,53,286.6666666666667,-4.041666666666667,320,-8C353.3333333333333,-11.958333333333332,366.6666666666667,33.166666666666664,400,34C433.3333333333333,34.833333333333336,446.6666666666667,-10.25,480,-4C513.3333333333334,2.25,526.6666666666666,69.20833333333333,560,64C593.3333333333334,58.791666666666664,606.6666666666666,-29.208333333333332,640,-29C673.3333333333334,-28.791666666666668,686.6666666666666,57.708333333333336,720,65C753.3333333333334,72.29166666666667,783.3333333333334,18.291666666666668,800,6" transform="matrix(1,0,0,1,0,744)"></path><path d="M10,10C24.583333333333332,15.625,48.75,40.75,80,37C111.25,33.25,126.66666666666666,-11.333333333333332,160,-8C193.33333333333334,-4.666666666666667,206.66666666666666,53,240,53C273.3333333333333,53,286.6666666666667,-4.041666666666667,320,-8C353.3333333333333,-11.958333333333332,366.6666666666667,33.166666666666664,400,34C433.3333333333333,34.833333333333336,446.6666666666667,-10.25,480,-4C513.3333333333334,2.25,526.6666666666666,69.20833333333333,560,64C593.3333333333334,58.791666666666664,606.6666666666666,-29.208333333333332,640,-29C673.3333333333334,-28.791666666666668,686.6666666666666,57.708333333333336,720,65C753.3333333333334,72.29166666666667,783.3333333333334,18.291666666666668,800,6" transform="matrix(1,0,0,1,0,713)"></path><path d="M10,10C24.583333333333332,15.625,48.75,40.75,80,37C111.25,33.25,126.66666666666666,-11.333333333333332,160,-8C193.33333333333334,-4.666666666666667,206.66666666666666,53,240,53C273.3333333333333,53,286.6666666666667,-4.041666666666667,320,-8C353.3333333333333,-11.958333333333332,366.6666666666667,33.166666666666664,400,34C433.3333333333333,34.833333333333336,446.6666666666667,-10.25,480,-4C513.3333333333334,2.25,526.6666666666666,69.20833333333333,560,64C593.3333333333334,58.791666666666664,606.6666666666666,-29.208333333333332,640,-29C673.3333333333334,-28.791666666666668,686.6666666666666,57.708333333333336,720,65C753.3333333333334,72.29166666666667,783.3333333333334,18.291666666666668,800,6" transform="matrix(1,0,0,1,0,682)"></path><path d="M10,10C24.583333333333332,15.625,48.75,40.75,80,37C111.25,33.25,126.66666666666666,-11.333333333333332,160,-8C193.33333333333334,-4.666666666666667,206.66666666666666,53,240,53C273.3333333333333,53,286.6666666666667,-4.041666666666667,320,-8C353.3333333333333,-11.958333333333332,366.6666666666667,33.166666666666664,400,34C433.3333333333333,34.833333333333336,446.6666666666667,-10.25,480,-4C513.3333333333334,2.25,526.6666666666666,69.20833333333333,560,64C593.3333333333334,58.791666666666664,606.6666666666666,-29.208333333333332,640,-29C673.3333333333334,-28.791666666666668,686.6666666666666,57.708333333333336,720,65C753.3333333333334,72.29166666666667,783.3333333333334,18.291666666666668,800,6" transform="matrix(1,0,0,1,0,651)"></path><path d="M10,10C24.583333333333332,15.625,48.75,40.75,80,37C111.25,33.25,126.66666666666666,-11.333333333333332,160,-8C193.33333333333334,-4.666666666666667,206.66666666666666,53,240,53C273.3333333333333,53,286.6666666666667,-4.041666666666667,320,-8C353.3333333333333,-11.958333333333332,366.6666666666667,33.166666666666664,400,34C433.3333333333333,34.833333333333336,446.6666666666667,-10.25,480,-4C513.3333333333334,2.25,526.6666666666666,69.20833333333333,560,64C593.3333333333334,58.791666666666664,606.6666666666666,-29.208333333333332,640,-29C673.3333333333334,-28.791666666666668,686.6666666666666,57.708333333333336,720,65C753.3333333333334,72.29166666666667,783.3333333333334,18.291666666666668,800,6" transform="matrix(1,0,0,1,0,620)"></path><path d="M10,10C24.583333333333332,15.625,48.75,40.75,80,37C111.25,33.25,126.66666666666666,-11.333333333333332,160,-8C193.33333333333334,-4.666666666666667,206.66666666666666,53,240,53C273.3333333333333,53,286.6666666666667,-4.041666666666667,320,-8C353.3333333333333,-11.958333333333332,366.6666666666667,33.166666666666664,400,34C433.3333333333333,34.833333333333336,446.6666666666667,-10.25,480,-4C513.3333333333334,2.25,526.6666666666666,69.20833333333333,560,64C593.3333333333334,58.791666666666664,606.6666666666666,-29.208333333333332,640,-29C673.3333333333334,-28.791666666666668,686.6666666666666,57.708333333333336,720,65C753.3333333333334,72.29166666666667,783.3333333333334,18.291666666666668,800,6" transform="matrix(1,0,0,1,0,589)"></path><path d="M10,10C24.583333333333332,15.625,48.75,40.75,80,37C111.25,33.25,126.66666666666666,-11.333333333333332,160,-8C193.33333333333334,-4.666666666666667,206.66666666666666,53,240,53C273.3333333333333,53,286.6666666666667,-4.041666666666667,320,-8C353.3333333333333,-11.958333333333332,366.6666666666667,33.166666666666664,400,34C433.3333333333333,34.833333333333336,446.6666666666667,-10.25,480,-4C513.3333333333334,2.25,526.6666666666666,69.20833333333333,560,64C593.3333333333334,58.791666666666664,606.6666666666666,-29.208333333333332,640,-29C673.3333333333334,-28.791666666666668,686.6666666666666,57.708333333333336,720,65C753.3333333333334,72.29166666666667,783.3333333333334,18.291666666666668,800,6" transform="matrix(1,0,0,1,0,558)"></path><path d="M10,10C24.583333333333332,15.625,48.75,40.75,80,37C111.25,33.25,126.66666666666666,-11.333333333333332,160,-8C193.33333333333334,-4.666666666666667,206.66666666666666,53,240,53C273.3333333333333,53,286.6666666666667,-4.041666666666667,320,-8C353.3333333333333,-11.958333333333332,366.6666666666667,33.166666666666664,400,34C433.3333333333333,34.833333333333336,446.6666666666667,-10.25,480,-4C513.3333333333334,2.25,526.6666666666666,69.20833333333333,560,64C593.3333333333334,58.791666666666664,606.6666666666666,-29.208333333333332,640,-29C673.3333333333334,-28.791666666666668,686.6666666666666,57.708333333333336,720,65C753.3333333333334,72.29166666666667,783.3333333333334,18.291666666666668,800,6" transform="matrix(1,0,0,1,0,527)"></path><path d="M10,10C24.583333333333332,15.625,48.75,40.75,80,37C111.25,33.25,126.66666666666666,-11.333333333333332,160,-8C193.33333333333334,-4.666666666666667,206.66666666666666,53,240,53C273.3333333333333,53,286.6666666666667,-4.041666666666667,320,-8C353.3333333333333,-11.958333333333332,366.6666666666667,33.166666666666664,400,34C433.3333333333333,34.833333333333336,446.6666666666667,-10.25,480,-4C513.3333333333334,2.25,526.6666666666666,69.20833333333333,560,64C593.3333333333334,58.791666666666664,606.6666666666666,-29.208333333333332,640,-29C673.3333333333334,-28.791666666666668,686.6666666666666,57.708333333333336,720,65C753.3333333333334,72.29166666666667,783.3333333333334,18.291666666666668,800,6" transform="matrix(1,0,0,1,0,496)"></path><path d="M10,10C24.583333333333332,15.625,48.75,40.75,80,37C111.25,33.25,126.66666666666666,-11.333333333333332,160,-8C193.33333333333334,-4.666666666666667,206.66666666666666,53,240,53C273.3333333333333,53,286.6666666666667,-4.041666666666667,320,-8C353.3333333333333,-11.958333333333332,366.6666666666667,33.166666666666664,400,34C433.3333333333333,34.833333333333336,446.6666666666667,-10.25,480,-4C513.3333333333334,2.25,526.6666666666666,69.20833333333333,560,64C593.3333333333334,58.791666666666664,606.6666666666666,-29.208333333333332,640,-29C673.3333333333334,-28.791666666666668,686.6666666666666,57.708333333333336,720,65C753.3333333333334,72.29166666666667,783.3333333333334,18.291666666666668,800,6" transform="matrix(1,0,0,1,0,465)"></path><path d="M10,10C24.583333333333332,15.625,48.75,40.75,80,37C111.25,33.25,126.66666666666666,-11.333333333333332,160,-8C193.33333333333334,-4.666666666666667,206.66666666666666,53,240,53C273.3333333333333,53,286.6666666666667,-4.041666666666667,320,-8C353.3333333333333,-11.958333333333332,366.6666666666667,33.166666666666664,400,34C433.3333333333333,34.833333333333336,446.6666666666667,-10.25,480,-4C513.3333333333334,2.25,526.6666666666666,69.20833333333333,560,64C593.3333333333334,58.791666666666664,606.6666666666666,-29.208333333333332,640,-29C673.3333333333334,-28.791666666666668,686.6666666666666,57.708333333333336,720,65C753.3333333333334,72.29166666666667,783.3333333333334,18.291666666666668,800,6" transform="matrix(1,0,0,1,0,434)"></path><path d="M10,10C24.583333333333332,15.625,48.75,40.75,80,37C111.25,33.25,126.66666666666666,-11.333333333333332,160,-8C193.33333333333334,-4.666666666666667,206.66666666666666,53,240,53C273.3333333333333,53,286.6666666666667,-4.041666666666667,320,-8C353.3333333333333,-11.958333333333332,366.6666666666667,33.166666666666664,400,34C433.3333333333333,34.833333333333336,446.6666666666667,-10.25,480,-4C513.3333333333334,2.25,526.6666666666666,69.20833333333333,560,64C593.3333333333334,58.791666666666664,606.6666666666666,-29.208333333333332,640,-29C673.3333333333334,-28.791666666666668,686.6666666666666,57.708333333333336,720,65C753.3333333333334,72.29166666666667,783.3333333333334,18.291666666666668,800,6" transform="matrix(1,0,0,1,0,403)"></path><path d="M10,10C24.583333333333332,15.625,48.75,40.75,80,37C111.25,33.25,126.66666666666666,-11.333333333333332,160,-8C193.33333333333334,-4.666666666666667,206.66666666666666,53,240,53C273.3333333333333,53,286.6666666666667,-4.041666666666667,320,-8C353.3333333333333,-11.958333333333332,366.6666666666667,33.166666666666664,400,34C433.3333333333333,34.833333333333336,446.6666666666667,-10.25,480,-4C513.3333333333334,2.25,526.6666666666666,69.20833333333333,560,64C593.3333333333334,58.791666666666664,606.6666666666666,-29.208333333333332,640,-29C673.3333333333334,-28.791666666666668,686.6666666666666,57.708333333333336,720,65C753.3333333333334,72.29166666666667,783.3333333333334,18.291666666666668,800,6" transform="matrix(1,0,0,1,0,372)"></path><path d="M10,10C24.583333333333332,15.625,48.75,40.75,80,37C111.25,33.25,126.66666666666666,-11.333333333333332,160,-8C193.33333333333334,-4.666666666666667,206.66666666666666,53,240,53C273.3333333333333,53,286.6666666666667,-4.041666666666667,320,-8C353.3333333333333,-11.958333333333332,366.6666666666667,33.166666666666664,400,34C433.3333333333333,34.833333333333336,446.6666666666667,-10.25,480,-4C513.3333333333334,2.25,526.6666666666666,69.20833333333333,560,64C593.3333333333334,58.791666666666664,606.6666666666666,-29.208333333333332,640,-29C673.3333333333334,-28.791666666666668,686.6666666666666,57.708333333333336,720,65C753.3333333333334,72.29166666666667,783.3333333333334,18.291666666666668,800,6" transform="matrix(1,0,0,1,0,341)"></path><path d="M10,10C24.583333333333332,15.625,48.75,40.75,80,37C111.25,33.25,126.66666666666666,-11.333333333333332,160,-8C193.33333333333334,-4.666666666666667,206.66666666666666,53,240,53C273.3333333333333,53,286.6666666666667,-4.041666666666667,320,-8C353.3333333333333,-11.958333333333332,366.6666666666667,33.166666666666664,400,34C433.3333333333333,34.833333333333336,446.6666666666667,-10.25,480,-4C513.3333333333334,2.25,526.6666666666666,69.20833333333333,560,64C593.3333333333334,58.791666666666664,606.6666666666666,-29.208333333333332,640,-29C673.3333333333334,-28.791666666666668,686.6666666666666,57.708333333333336,720,65C753.3333333333334,72.29166666666667,783.3333333333334,18.291666666666668,800,6" transform="matrix(1,0,0,1,0,310)"></path><path d="M10,10C24.583333333333332,15.625,48.75,40.75,80,37C111.25,33.25,126.66666666666666,-11.333333333333332,160,-8C193.33333333333334,-4.666666666666667,206.66666666666666,53,240,53C273.3333333333333,53,286.6666666666667,-4.041666666666667,320,-8C353.3333333333333,-11.958333333333332,366.6666666666667,33.166666666666664,400,34C433.3333333333333,34.833333333333336,446.6666666666667,-10.25,480,-4C513.3333333333334,2.25,526.6666666666666,69.20833333333333,560,64C593.3333333333334,58.791666666666664,606.6666666666666,-29.208333333333332,640,-29C673.3333333333334,-28.791666666666668,686.6666666666666,57.708333333333336,720,65C753.3333333333334,72.29166666666667,783.3333333333334,18.291666666666668,800,6" transform="matrix(1,0,0,1,0,279)"></path><path d="M10,10C24.583333333333332,15.625,48.75,40.75,80,37C111.25,33.25,126.66666666666666,-11.333333333333332,160,-8C193.33333333333334,-4.666666666666667,206.66666666666666,53,240,53C273.3333333333333,53,286.6666666666667,-4.041666666666667,320,-8C353.3333333333333,-11.958333333333332,366.6666666666667,33.166666666666664,400,34C433.3333333333333,34.833333333333336,446.6666666666667,-10.25,480,-4C513.3333333333334,2.25,526.6666666666666,69.20833333333333,560,64C593.3333333333334,58.791666666666664,606.6666666666666,-29.208333333333332,640,-29C673.3333333333334,-28.791666666666668,686.6666666666666,57.708333333333336,720,65C753.3333333333334,72.29166666666667,783.3333333333334,18.291666666666668,800,6" transform="matrix(1,0,0,1,0,248)"></path><path d="M10,10C24.583333333333332,15.625,48.75,40.75,80,37C111.25,33.25,126.66666666666666,-11.333333333333332,160,-8C193.33333333333334,-4.666666666666667,206.66666666666666,53,240,53C273.3333333333333,53,286.6666666666667,-4.041666666666667,320,-8C353.3333333333333,-11.958333333333332,366.6666666666667,33.166666666666664,400,34C433.3333333333333,34.833333333333336,446.6666666666667,-10.25,480,-4C513.3333333333334,2.25,526.6666666666666,69.20833333333333,560,64C593.3333333333334,58.791666666666664,606.6666666666666,-29.208333333333332,640,-29C673.3333333333334,-28.791666666666668,686.6666666666666,57.708333333333336,720,65C753.3333333333334,72.29166666666667,783.3333333333334,18.291666666666668,800,6" transform="matrix(1,0,0,1,0,217)"></path><path d="M10,10C24.583333333333332,15.625,48.75,40.75,80,37C111.25,33.25,126.66666666666666,-11.333333333333332,160,-8C193.33333333333334,-4.666666666666667,206.66666666666666,53,240,53C273.3333333333333,53,286.6666666666667,-4.041666666666667,320,-8C353.3333333333333,-11.958333333333332,366.6666666666667,33.166666666666664,400,34C433.3333333333333,34.833333333333336,446.6666666666667,-10.25,480,-4C513.3333333333334,2.25,526.6666666666666,69.20833333333333,560,64C593.3333333333334,58.791666666666664,606.6666666666666,-29.208333333333332,640,-29C673.3333333333334,-28.791666666666668,686.6666666666666,57.708333333333336,720,65C753.3333333333334,72.29166666666667,783.3333333333334,18.291666666666668,800,6" transform="matrix(1,0,0,1,0,186)"></path><path d="M10,10C24.583333333333332,15.625,48.75,40.75,80,37C111.25,33.25,126.66666666666666,-11.333333333333332,160,-8C193.33333333333334,-4.666666666666667,206.66666666666666,53,240,53C273.3333333333333,53,286.6666666666667,-4.041666666666667,320,-8C353.3333333333333,-11.958333333333332,366.6666666666667,33.166666666666664,400,34C433.3333333333333,34.833333333333336,446.6666666666667,-10.25,480,-4C513.3333333333334,2.25,526.6666666666666,69.20833333333333,560,64C593.3333333333334,58.791666666666664,606.6666666666666,-29.208333333333332,640,-29C673.3333333333334,-28.791666666666668,686.6666666666666,57.708333333333336,720,65C753.3333333333334,72.29166666666667,783.3333333333334,18.291666666666668,800,6" transform="matrix(1,0,0,1,0,155)"></path><path d="M10,10C24.583333333333332,15.625,48.75,40.75,80,37C111.25,33.25,126.66666666666666,-11.333333333333332,160,-8C193.33333333333334,-4.666666666666667,206.66666666666666,53,240,53C273.3333333333333,53,286.6666666666667,-4.041666666666667,320,-8C353.3333333333333,-11.958333333333332,366.6666666666667,33.166666666666664,400,34C433.3333333333333,34.833333333333336,446.6666666666667,-10.25,480,-4C513.3333333333334,2.25,526.6666666666666,69.20833333333333,560,64C593.3333333333334,58.791666666666664,606.6666666666666,-29.208333333333332,640,-29C673.3333333333334,-28.791666666666668,686.6666666666666,57.708333333333336,720,65C753.3333333333334,72.29166666666667,783.3333333333334,18.291666666666668,800,6" transform="matrix(1,0,0,1,0,124)"></path><path d="M10,10C24.583333333333332,15.625,48.75,40.75,80,37C111.25,33.25,126.66666666666666,-11.333333333333332,160,-8C193.33333333333334,-4.666666666666667,206.66666666666666,53,240,53C273.3333333333333,53,286.6666666666667,-4.041666666666667,320,-8C353.3333333333333,-11.958333333333332,366.6666666666667,33.166666666666664,400,34C433.3333333333333,34.833333333333336,446.6666666666667,-10.25,480,-4C513.3333333333334,2.25,526.6666666666666,69.20833333333333,560,64C593.3333333333334,58.791666666666664,606.6666666666666,-29.208333333333332,640,-29C673.3333333333334,-28.791666666666668,686.6666666666666,57.708333333333336,720,65C753.3333333333334,72.29166666666667,783.3333333333334,18.291666666666668,800,6" transform="matrix(1,0,0,1,0,93)"></path><path d="M10,10C24.583333333333332,15.625,48.75,40.75,80,37C111.25,33.25,126.66666666666666,-11.333333333333332,160,-8C193.33333333333334,-4.666666666666667,206.66666666666666,53,240,53C273.3333333333333,53,286.6666666666667,-4.041666666666667,320,-8C353.3333333333333,-11.958333333333332,366.6666666666667,33.166666666666664,400,34C433.3333333333333,34.833333333333336,446.6666666666667,-10.25,480,-4C513.3333333333334,2.25,526.6666666666666,69.20833333333333,560,64C593.3333333333334,58.791666666666664,606.6666666666666,-29.208333333333332,640,-29C673.3333333333334,-28.791666666666668,686.6666666666666,57.708333333333336,720,65C753.3333333333334,72.29166666666667,783.3333333333334,18.291666666666668,800,6" transform="matrix(1,0,0,1,0,62)"></path><path d="M10,10C24.583333333333332,15.625,48.75,40.75,80,37C111.25,33.25,126.66666666666666,-11.333333333333332,160,-8C193.33333333333334,-4.666666666666667,206.66666666666666,53,240,53C273.3333333333333,53,286.6666666666667,-4.041666666666667,320,-8C353.3333333333333,-11.958333333333332,366.6666666666667,33.166666666666664,400,34C433.3333333333333,34.833333333333336,446.6666666666667,-10.25,480,-4C513.3333333333334,2.25,526.6666666666666,69.20833333333333,560,64C593.3333333333334,58.791666666666664,606.6666666666666,-29.208333333333332,640,-29C673.3333333333334,-28.791666666666668,686.6666666666666,57.708333333333336,720,65C753.3333333333334,72.29166666666667,783.3333333333334,18.291666666666668,800,6" transform="matrix(1,0,0,1,0,31)"></path></g></svg>