<?xml version="1.0" standalone="no"?>
<svg xmlns:xlink="http://www.w3.org/1999/xlink" id="wave" style="transform=rotate(90 50 50); transition: 0.3s" viewBox="0 0 1440 490" version="1.1" xmlns="http://www.w3.org/2000/svg"><defs><linearGradient id="sw-gradient-0" x1="0" x2="0" y1="1" y2="0"><stop stop-color="rgba(62, 111.159, 243, 1)" offset="0%" style="--darkreader-inline-stopcolor: #0a34a4;" data-darkreader-inline-stopcolor=""/><stop stop-color="rgba(209.258, 11, 255, 1)" offset="100%" style="--darkreader-inline-stopcolor: #a000c5;" data-darkreader-inline-stopcolor=""/></linearGradient></defs><path style="transform:translate(0, 0px); opacity:1" fill="url(#sw-gradient-0)" d="M0,98L34.3,106.2C68.6,114,137,131,206,163.3C274.3,196,343,245,411,253.2C480,261,549,229,617,204.2C685.7,180,754,163,823,155.2C891.4,147,960,147,1029,187.8C1097.1,229,1166,310,1234,302.2C1302.9,294,1371,196,1440,138.8C1508.6,82,1577,65,1646,81.7C1714.3,98,1783,147,1851,187.8C1920,229,1989,261,2057,285.8C2125.7,310,2194,327,2263,294C2331.4,261,2400,180,2469,155.2C2537.1,131,2606,163,2674,204.2C2742.9,245,2811,294,2880,334.8C2948.6,376,3017,408,3086,416.5C3154.3,425,3223,408,3291,392C3360,376,3429,359,3497,351.2C3565.7,343,3634,343,3703,359.3C3771.4,376,3840,408,3909,424.7C3977.1,441,4046,441,4114,432.8C4182.9,425,4251,408,4320,392C4388.6,376,4457,359,4526,351.2C4594.3,343,4663,343,4731,318.5C4800,294,4869,245,4903,220.5L4937.1,196L4937.1,490L4902.9,490C4868.6,490,4800,490,4731,490C4662.9,490,4594,490,4526,490C4457.1,490,4389,490,4320,490C4251.4,490,4183,490,4114,490C4045.7,490,3977,490,3909,490C3840,490,3771,490,3703,490C3634.3,490,3566,490,3497,490C3428.6,490,3360,490,3291,490C3222.9,490,3154,490,3086,490C3017.1,490,2949,490,2880,490C2811.4,490,2743,490,2674,490C2605.7,490,2537,490,2469,490C2400,490,2331,490,2263,490C2194.3,490,2126,490,2057,490C1988.6,490,1920,490,1851,490C1782.9,490,1714,490,1646,490C1577.1,490,1509,490,1440,490C1371.4,490,1303,490,1234,490C1165.7,490,1097,490,1029,490C960,490,891,490,823,490C754.3,490,686,490,617,490C548.6,490,480,490,411,490C342.9,490,274,490,206,490C137.1,490,69,490,34,490L0,490Z"/><defs><linearGradient id="sw-gradient-1" x1="0" x2="0" y1="1" y2="0"><stop stop-color="rgba(77.609, 0, 255, 1)" offset="0%" style="--darkreader-inline-stopcolor: #3e00cc;" data-darkreader-inline-stopcolor=""/><stop stop-color="rgba(255, 179, 11, 1)" offset="100%" style="--darkreader-inline-stopcolor: #946600;" data-darkreader-inline-stopcolor=""/></linearGradient></defs><path style="transform:translate(0, 50px); opacity:0.9" fill="url(#sw-gradient-1)" d="M0,147L34.3,122.5C68.6,98,137,49,206,32.7C274.3,16,343,33,411,40.8C480,49,549,49,617,89.8C685.7,131,754,212,823,204.2C891.4,196,960,98,1029,114.3C1097.1,131,1166,261,1234,294C1302.9,327,1371,261,1440,220.5C1508.6,180,1577,163,1646,138.8C1714.3,114,1783,82,1851,65.3C1920,49,1989,49,2057,65.3C2125.7,82,2194,114,2263,106.2C2331.4,98,2400,49,2469,89.8C2537.1,131,2606,261,2674,302.2C2742.9,343,2811,294,2880,261.3C2948.6,229,3017,212,3086,236.8C3154.3,261,3223,327,3291,294C3360,261,3429,131,3497,73.5C3565.7,16,3634,33,3703,89.8C3771.4,147,3840,245,3909,310.3C3977.1,376,4046,408,4114,424.7C4182.9,441,4251,441,4320,441C4388.6,441,4457,441,4526,408.3C4594.3,376,4663,310,4731,261.3C4800,212,4869,180,4903,163.3L4937.1,147L4937.1,490L4902.9,490C4868.6,490,4800,490,4731,490C4662.9,490,4594,490,4526,490C4457.1,490,4389,490,4320,490C4251.4,490,4183,490,4114,490C4045.7,490,3977,490,3909,490C3840,490,3771,490,3703,490C3634.3,490,3566,490,3497,490C3428.6,490,3360,490,3291,490C3222.9,490,3154,490,3086,490C3017.1,490,2949,490,2880,490C2811.4,490,2743,490,2674,490C2605.7,490,2537,490,2469,490C2400,490,2331,490,2263,490C2194.3,490,2126,490,2057,490C1988.6,490,1920,490,1851,490C1782.9,490,1714,490,1646,490C1577.1,490,1509,490,1440,490C1371.4,490,1303,490,1234,490C1165.7,490,1097,490,1029,490C960,490,891,490,823,490C754.3,490,686,490,617,490C548.6,490,480,490,411,490C342.9,490,274,490,206,490C137.1,490,69,490,34,490L0,490Z"/><defs><linearGradient id="sw-gradient-2" x1="0" x2="0" y1="1" y2="0"><stop stop-color="rgba(215.836, 0, 255, 1)" offset="0%" style="--darkreader-inline-stopcolor: #ad00cc;" data-darkreader-inline-stopcolor=""/><stop stop-color="rgba(255, 179, 11, 1)" offset="100%" style="--darkreader-inline-stopcolor: #946600;" data-darkreader-inline-stopcolor=""/></linearGradient></defs><path style="transform:translate(0, 100px); opacity:0.8" fill="url(#sw-gradient-2)" d="M0,98L34.3,98C68.6,98,137,98,206,130.7C274.3,163,343,229,411,220.5C480,212,549,131,617,147C685.7,163,754,278,823,334.8C891.4,392,960,392,1029,351.2C1097.1,310,1166,229,1234,220.5C1302.9,212,1371,278,1440,261.3C1508.6,245,1577,147,1646,138.8C1714.3,131,1783,212,1851,277.7C1920,343,1989,392,2057,343C2125.7,294,2194,147,2263,106.2C2331.4,65,2400,131,2469,171.5C2537.1,212,2606,229,2674,212.3C2742.9,196,2811,147,2880,155.2C2948.6,163,3017,229,3086,285.8C3154.3,343,3223,392,3291,359.3C3360,327,3429,212,3497,196C3565.7,180,3634,261,3703,253.2C3771.4,245,3840,147,3909,98C3977.1,49,4046,49,4114,89.8C4182.9,131,4251,212,4320,245C4388.6,278,4457,261,4526,269.5C4594.3,278,4663,310,4731,326.7C4800,343,4869,343,4903,343L4937.1,343L4937.1,490L4902.9,490C4868.6,490,4800,490,4731,490C4662.9,490,4594,490,4526,490C4457.1,490,4389,490,4320,490C4251.4,490,4183,490,4114,490C4045.7,490,3977,490,3909,490C3840,490,3771,490,3703,490C3634.3,490,3566,490,3497,490C3428.6,490,3360,490,3291,490C3222.9,490,3154,490,3086,490C3017.1,490,2949,490,2880,490C2811.4,490,2743,490,2674,490C2605.7,490,2537,490,2469,490C2400,490,2331,490,2263,490C2194.3,490,2126,490,2057,490C1988.6,490,1920,490,1851,490C1782.9,490,1714,490,1646,490C1577.1,490,1509,490,1440,490C1371.4,490,1303,490,1234,490C1165.7,490,1097,490,1029,490C960,490,891,490,823,490C754.3,490,686,490,617,490C548.6,490,480,490,411,490C342.9,490,274,490,206,490C137.1,490,69,490,34,490L0,490Z"/><defs><linearGradient id="sw-gradient-3" x1="0" x2="0" y1="1" y2="0"><stop stop-color="rgba(74.446, 121.998, 64.788, 1)" offset="0%" style="--darkreader-inline-stopcolor: #3b6234;" data-darkreader-inline-stopcolor=""/><stop stop-color="rgba(0, 255, 216.124, 1)" offset="100%" style="--darkreader-inline-stopcolor: #00ccb5;" data-darkreader-inline-stopcolor=""/></linearGradient></defs><path style="transform:translate(0, 150px); opacity:0.7" fill="url(#sw-gradient-3)" d="M0,147L34.3,147C68.6,147,137,147,206,187.8C274.3,229,343,310,411,351.2C480,392,549,392,617,359.3C685.7,327,754,261,823,245C891.4,229,960,261,1029,302.2C1097.1,343,1166,392,1234,343C1302.9,294,1371,147,1440,73.5C1508.6,0,1577,0,1646,16.3C1714.3,33,1783,65,1851,138.8C1920,212,1989,327,2057,367.5C2125.7,408,2194,376,2263,310.3C2331.4,245,2400,147,2469,98C2537.1,49,2606,49,2674,106.2C2742.9,163,2811,278,2880,318.5C2948.6,359,3017,327,3086,326.7C3154.3,327,3223,359,3291,310.3C3360,261,3429,131,3497,73.5C3565.7,16,3634,33,3703,89.8C3771.4,147,3840,245,3909,245C3977.1,245,4046,147,4114,106.2C4182.9,65,4251,82,4320,106.2C4388.6,131,4457,163,4526,196C4594.3,229,4663,261,4731,253.2C4800,245,4869,196,4903,171.5L4937.1,147L4937.1,490L4902.9,490C4868.6,490,4800,490,4731,490C4662.9,490,4594,490,4526,490C4457.1,490,4389,490,4320,490C4251.4,490,4183,490,4114,490C4045.7,490,3977,490,3909,490C3840,490,3771,490,3703,490C3634.3,490,3566,490,3497,490C3428.6,490,3360,490,3291,490C3222.9,490,3154,490,3086,490C3017.1,490,2949,490,2880,490C2811.4,490,2743,490,2674,490C2605.7,490,2537,490,2469,490C2400,490,2331,490,2263,490C2194.3,490,2126,490,2057,490C1988.6,490,1920,490,1851,490C1782.9,490,1714,490,1646,490C1577.1,490,1509,490,1440,490C1371.4,490,1303,490,1234,490C1165.7,490,1097,490,1029,490C960,490,891,490,823,490C754.3,490,686,490,617,490C548.6,490,480,490,411,490C342.9,490,274,490,206,490C137.1,490,69,490,34,490L0,490Z"/></svg>